<svg width="24" height="24" viewBox="0 0 24 24" fill="none" xmlns="http://www.w3.org/2000/svg">
<path d="M12 4C7.31001 4 3.26001 6.74 1.35001 10.7C1.11001 11.2 1.11001 11.8 1.35001 12.3C3.26001 16.26 7.31001 19 12 19C16.69 19 20.74 16.26 22.65 12.3C22.89 11.8 22.89 11.2 22.65 10.7C20.74 6.74 16.69 4 12 4ZM12 16C9.52001 16 7.50001 13.98 7.50001 11.5C7.50001 9.02 9.52001 7 12 7C14.48 7 16.5 9.02 16.5 11.5C16.5 13.98 14.48 16 12 16Z" fill="#AAB3BC"/>
<path d="M12 14.2C13.4912 14.2 14.7 12.9912 14.7 11.5C14.7 10.0088 13.4912 8.79999 12 8.79999C10.5088 8.79999 9.30002 10.0088 9.30002 11.5C9.30002 12.9912 10.5088 14.2 12 14.2Z" fill="#AAB3BC"/>
</svg>
